<svg width="24" height="17" viewBox="0 0 24 17" fill="none" xmlns="http://www.w3.org/2000/svg">
<path d="M1.8 17C1.32 17 0.9 16.8406 0.54 16.5219C0.18 16.2031 0 15.8313 0 15.4062V1.59375C0 1.16875 0.18 0.796875 0.54 0.478125C0.9 0.159375 1.32 0 1.8 0H22.2C22.68 0 23.1 0.159375 23.46 0.478125C23.82 0.796875 24 1.16875 24 1.59375V15.4062C24 15.8313 23.82 16.2031 23.46 16.5219C23.1 16.8406 22.68 17 22.2 17H1.8ZM12 8.97812L1.8 3.05469V15.4062H22.2V3.05469L12 8.97812ZM12 7.38438L22.08 1.59375H1.95L12 7.38438ZM1.8 3.05469V1.59375V15.4062V3.05469Z" fill="#8355EF"/>
</svg>